# This file uses meters as units for non-parametric coordinates.

mtllib Crater_Resized.mtl
g default
v 85.271011 -217.116530 -49.231266
v 49.231266 -217.116530 -85.271011
v 0.000000 -217.116530 -98.462532
v -49.231266 -217.116530 -85.271011
v -85.271011 -217.116530 -49.231266
v -98.462532 -217.116530 0.000000
v -85.271011 -217.116530 49.231266
v -49.231266 -217.116530 85.271011
v 0.000000 -217.116530 98.462532
v 49.231266 -217.116530 85.271011
v 85.271011 -217.116530 49.231266
v 98.462532 -217.116530 0.000000
v 85.271011 -182.883470 -49.231266
v 49.231266 -182.883470 -85.271011
v 0.000000 -182.883470 -98.462532
v -49.231266 -182.883470 -85.271011
v -85.271011 -182.883470 -49.231266
v -98.462532 -182.883470 0.000000
v -85.271011 -182.883470 49.231266
v -49.231266 -182.883470 85.271011
v 0.000000 -182.883470 98.462532
v 49.231266 -182.883470 85.271011
v 85.271011 -182.883470 49.231266
v 98.462532 -182.883470 0.000000
v 0.000000 -217.116530 0.000000
v 0.000000 -182.883470 0.000000
v 174.837063 -55.998256 -302.826635
v 302.826635 -55.998256 -174.837063
v 0.000000 -55.998256 -349.674032
v -174.837063 -55.998256 -302.826635
v -302.826635 -55.998256 -174.837063
v -349.674032 -55.998256 0.000000
v -302.826635 -55.998256 174.837063
v -174.837063 -55.998256 302.826635
v 0.000000 -55.998256 349.674032
v 174.837063 -55.998256 302.826635
v 302.826635 -55.998256 174.837063
v 349.674032 -55.998256 0.000000
v 393.850127 -75.866222 -393.850127
v 197.066268 -75.866222 -393.850127
v 197.066268 -55.998256 -393.850127
v 393.850127 -55.998256 -393.850127
v 0.000000 -75.866222 -394.132535
v 0.000000 -55.998256 -394.132535
v -197.066268 -75.866222 -393.850127
v -197.066268 -55.998256 -393.850127
v -393.850127 -75.866222 -393.850127
v -393.850127 -55.998256 -393.850127
v -394.132535 -75.866222 0.000000
v -394.132535 -55.998256 0.000000
v -393.850127 -75.866222 393.850127
v -393.850127 -55.998256 393.850127
v -197.066268 -75.866222 393.850127
v -197.066268 -55.998256 393.850127
v 0.000000 -75.866222 394.132535
v 0.000000 -55.998256 394.132535
v 197.066268 -75.866222 393.850127
v 197.066268 -55.998256 393.850127
v 393.850127 -75.866222 393.850127
v 393.850127 -55.998256 393.850127
v 394.132535 -75.866222 0.000000
v 394.132535 -55.998256 0.000000
vt 0.943691 0.106051
vt 0.943691 0.106051
vt 0.943691 0.993949
vt 0.943691 0.993949
vt 0.956311 0.106051
vt 0.956311 0.993949
vt 0.943691 0.106051
vt 0.943691 0.993949
vt 0.943689 0.106051
vt 0.943689 0.993949
vt 0.956311 0.106051
vt 0.943691 0.106051
vt 0.943691 0.993949
vt 0.956311 0.993949
vt 0.956311 0.106051
vt 0.956311 0.993949
vt 0.956311 0.106051
vt 0.956311 0.106051
vt 0.956311 0.993949
vt 0.956311 0.993949
vt 0.943691 0.106051
vt 0.943691 0.993949
vt 0.956311 0.106051
vt 0.956311 0.993949
vt -0.500000 0.000358
vt -0.250358 0.000358
vt -0.250358 0.000358
vt -0.500000 0.000358
vt 0.943689 0.106051
vt 0.956309 0.106051
vt 0.956309 0.993949
vt 0.943689 0.993949
vt 0.943689 0.106051
vt 0.943689 0.993949
vt 0.905207 0.059018
vt 0.909018 0.055207
vt 0.900000 0.050000
vt 0.900000 0.060413
vt 0.894793 0.059018
vt 0.890982 0.055207
vt 0.889587 0.050000
vt 0.890982 0.044793
vt 0.894793 0.040982
vt 0.900000 0.039587
vt 0.905207 0.040982
vt 0.909018 0.044793
vt 0.910413 0.050000
vt 0.544315 0.604452
vt 0.504452 0.644314
vt 0.450000 0.550000
vt 0.450000 0.658905
vt 0.395548 0.644314
vt 0.355686 0.604452
vt 0.341095 0.550000
vt 0.355686 0.495548
vt 0.395548 0.455686
vt 0.450000 0.441095
vt 0.504452 0.455686
vt 0.544315 0.495548
vt 0.558905 0.550000
vt 0.784943 0.743379
vt 0.643379 0.884943
vt 0.450000 0.936759
vt 0.256621 0.884943
vt 0.115057 0.743379
vt 0.063241 0.550000
vt 0.115057 0.356621
vt 0.256621 0.215057
vt 0.450000 0.163241
vt 0.643379 0.215057
vt 0.784943 0.356621
vt 0.836759 0.550000
vt 0.920842 0.091654
vt 0.941653 0.091654
vt 0.885620 0.985620
vt 0.667966 0.985620
vt 0.900000 0.091683
vt 0.450000 0.985932
vt 0.879158 0.091654
vt 0.232034 0.985620
vt 0.858346 0.091654
vt 0.014380 0.985620
vt 0.858317 0.050000
vt 0.014068 0.550000
vt 0.858346 0.008346
vt 0.014380 0.114380
vt 0.879158 0.008346
vt 0.232034 0.114380
vt 0.900000 0.008317
vt 0.450000 0.114068
vt 0.920842 0.008346
vt 0.667966 0.114380
vt 0.941653 0.008346
vt 0.885620 0.114380
vt 0.941683 0.050000
vt 0.885932 0.550000
vn 0.361566 -0.912999 -0.188952
vn 0.040587 -0.887396 -0.459217
vn 0.000125 0.984618 -0.174719
vn 0.275119 0.951504 -0.137658
vn 0.040587 -0.887396 -0.459217
vn 0.000000 -0.870561 -0.492061
vn 0.000000 0.956561 -0.291531
vn 0.000125 0.984618 -0.174719
vn 0.000000 -0.870561 -0.492061
vn -0.040587 -0.887396 -0.459217
vn -0.000125 0.984618 -0.174719
vn 0.000000 0.956561 -0.291531
vn -0.040587 -0.887396 -0.459217
vn -0.361566 -0.912999 -0.188952
vn -0.275119 0.951504 -0.137658
vn -0.000125 0.984618 -0.174719
vn -0.361566 -0.912999 -0.188952
vn -0.498136 -0.867099 0.000000
vn -0.337397 0.941362 0.000000
vn -0.275119 0.951504 -0.137658
vn -0.498136 -0.867099 0.000000
vn -0.361566 -0.912999 0.188952
vn -0.275119 0.951504 0.137658
vn -0.337397 0.941362 0.000000
vn -0.361566 -0.912999 0.188952
vn -0.040587 -0.887396 0.459217
vn -0.000125 0.984618 0.174719
vn -0.275119 0.951504 0.137658
vn -0.040587 -0.887396 0.459217
vn 0.000000 -0.870561 0.492061
vn 0.000000 0.956561 0.291531
vn -0.000125 0.984618 0.174719
vn 0.000000 -0.870561 0.492061
vn 0.040587 -0.887396 0.459217
vn 0.000125 0.984618 0.174719
vn 0.000000 0.956561 0.291531
vn 0.040587 -0.887396 0.459217
vn 0.361566 -0.912999 0.188952
vn 0.275119 0.951504 0.137658
vn 0.000125 0.984618 0.174719
vn 0.361566 -0.912999 0.188952
vn 0.498136 -0.867099 0.000000
vn 0.337397 0.941362 0.000000
vn 0.275119 0.951504 0.137658
vn 0.498136 -0.867099 0.000000
vn 0.361566 -0.912999 -0.188952
vn 0.275119 0.951504 -0.137658
vn 0.337397 0.941362 0.000000
vn 0.039008 -0.926476 -0.374326
vn 0.296151 -0.946206 -0.130338
vn 0.000000 -1.000000 0.000000
vn 0.000000 -0.915624 -0.402036
vn 0.039008 -0.926476 -0.374326
vn 0.000000 -1.000000 0.000000
vn -0.039008 -0.926476 -0.374326
vn 0.000000 -0.915624 -0.402036
vn 0.000000 -1.000000 0.000000
vn -0.296151 -0.946206 -0.130339
vn -0.039008 -0.926476 -0.374326
vn 0.000000 -1.000000 0.000000
vn -0.408088 -0.912943 0.000000
vn -0.296151 -0.946206 -0.130339
vn 0.000000 -1.000000 0.000000
vn -0.296151 -0.946206 0.130338
vn -0.408088 -0.912943 0.000000
vn 0.000000 -1.000000 0.000000
vn -0.039008 -0.926476 0.374326
vn -0.296151 -0.946206 0.130338
vn 0.000000 -1.000000 0.000000
vn 0.000000 -0.915624 0.402036
vn -0.039008 -0.926476 0.374326
vn 0.000000 -1.000000 0.000000
vn 0.039008 -0.926476 0.374326
vn 0.000000 -0.915624 0.402036
vn 0.000000 -1.000000 0.000000
vn 0.296151 -0.946206 0.130338
vn 0.039008 -0.926476 0.374326
vn 0.000000 -1.000000 0.000000
vn 0.408088 -0.912943 0.000000
vn 0.296151 -0.946206 0.130338
vn 0.000000 -1.000000 0.000000
vn 0.296151 -0.946206 -0.130338
vn 0.408088 -0.912943 0.000000
vn 0.000000 -1.000000 0.000000
vn -0.370223 0.904017 0.213748
vn -0.213748 0.904017 0.370223
vn 0.000000 1.000000 0.000000
vn -0.213748 0.904017 0.370223
vn 0.000000 0.904017 0.427497
vn 0.000000 1.000000 0.000000
vn 0.000000 0.904017 0.427497
vn 0.213748 0.904017 0.370223
vn 0.000000 1.000000 0.000000
vn 0.213748 0.904017 0.370223
vn 0.370223 0.904017 0.213748
vn 0.000000 1.000000 0.000000
vn 0.370223 0.904017 0.213748
vn 0.427497 0.904017 0.000000
vn 0.000000 1.000000 0.000000
vn 0.427497 0.904017 0.000000
vn 0.370223 0.904017 -0.213748
vn 0.000000 1.000000 0.000000
vn 0.370223 0.904017 -0.213748
vn 0.213748 0.904017 -0.370223
vn 0.000000 1.000000 0.000000
vn 0.213748 0.904017 -0.370223
vn 0.000000 0.904017 -0.427497
vn 0.000000 1.000000 0.000000
vn 0.000000 0.904017 -0.427497
vn -0.213748 0.904017 -0.370223
vn 0.000000 1.000000 0.000000
vn -0.213748 0.904017 -0.370223
vn -0.370223 0.904017 -0.213748
vn 0.000000 1.000000 0.000000
vn -0.370223 0.904017 -0.213748
vn -0.427497 0.904017 0.000000
vn 0.000000 1.000000 0.000000
vn -0.427497 0.904017 0.000000
vn -0.370223 0.904017 0.213748
vn 0.000000 1.000000 0.000000
vn -0.213748 0.904017 0.370223
vn -0.370223 0.904017 0.213748
vn -0.206724 0.971092 0.119352
vn -0.124389 0.968560 0.215449
vn 0.000000 0.904017 0.427497
vn -0.213748 0.904017 0.370223
vn -0.124389 0.968560 0.215449
vn 0.000000 0.951564 0.307452
vn 0.213748 0.904017 0.370223
vn 0.000000 0.904017 0.427497
vn 0.000000 0.951564 0.307452
vn 0.124389 0.968560 0.215449
vn 0.370223 0.904017 0.213748
vn 0.213748 0.904017 0.370223
vn 0.124389 0.968560 0.215449
vn 0.206724 0.971092 0.119352
vn 0.427497 0.904017 0.000000
vn 0.370223 0.904017 0.213748
vn 0.206724 0.971092 0.119352
vn 0.249931 0.968264 0.000000
vn 0.370223 0.904017 -0.213748
vn 0.427497 0.904017 0.000000
vn 0.249931 0.968264 0.000000
vn 0.206724 0.971092 -0.119352
vn 0.213748 0.904017 -0.370223
vn 0.370223 0.904017 -0.213748
vn 0.206724 0.971092 -0.119352
vn 0.124389 0.968560 -0.215449
vn 0.000000 0.904017 -0.427497
vn 0.213748 0.904017 -0.370223
vn 0.124389 0.968560 -0.215449
vn 0.000000 0.951564 -0.307452
vn -0.213748 0.904017 -0.370223
vn 0.000000 0.904017 -0.427497
vn 0.000000 0.951564 -0.307452
vn -0.124389 0.968560 -0.215449
vn -0.370223 0.904017 -0.213748
vn -0.213748 0.904017 -0.370223
vn -0.124389 0.968560 -0.215449
vn -0.206724 0.971092 -0.119352
vn -0.427497 0.904017 0.000000
vn -0.370223 0.904017 -0.213748
vn -0.206724 0.971092 -0.119352
vn -0.249931 0.968264 -0.000000
vn -0.370223 0.904017 0.213748
vn -0.427497 0.904017 0.000000
vn -0.249931 0.968264 -0.000000
vn -0.206724 0.971092 0.119352
vn 0.039008 -0.926476 -0.374326
vn 0.040587 -0.887396 -0.459217
vn 0.361566 -0.912999 -0.188952
vn 0.296151 -0.946206 -0.130338
vn -0.124389 0.968560 0.215449
vn -0.206724 0.971092 0.119352
vn 0.275119 0.951504 -0.137658
vn 0.000125 0.984618 -0.174719
vn 0.000000 -0.915624 -0.402036
vn 0.000000 -0.870561 -0.492061
vn 0.040587 -0.887396 -0.459217
vn 0.039008 -0.926476 -0.374326
vn 0.000000 0.951564 0.307452
vn -0.124389 0.968560 0.215449
vn 0.000125 0.984618 -0.174719
vn 0.000000 0.956561 -0.291531
vn -0.039008 -0.926476 -0.374326
vn -0.040587 -0.887396 -0.459217
vn 0.000000 -0.870561 -0.492061
vn 0.000000 -0.915624 -0.402036
vn 0.124389 0.968560 0.215449
vn 0.000000 0.951564 0.307452
vn 0.000000 0.956561 -0.291531
vn -0.000125 0.984618 -0.174719
vn -0.296151 -0.946206 -0.130339
vn -0.361566 -0.912999 -0.188952
vn -0.040587 -0.887396 -0.459217
vn -0.039008 -0.926476 -0.374326
vn 0.206724 0.971092 0.119352
vn 0.124389 0.968560 0.215449
vn -0.000125 0.984618 -0.174719
vn -0.275119 0.951504 -0.137658
vn -0.408088 -0.912943 0.000000
vn -0.498136 -0.867099 0.000000
vn -0.361566 -0.912999 -0.188952
vn -0.296151 -0.946206 -0.130339
vn 0.249931 0.968264 0.000000
vn 0.206724 0.971092 0.119352
vn -0.275119 0.951504 -0.137658
vn -0.337397 0.941362 0.000000
vn -0.296151 -0.946206 0.130338
vn -0.361566 -0.912999 0.188952
vn -0.498136 -0.867099 0.000000
vn -0.408088 -0.912943 0.000000
vn 0.206724 0.971092 -0.119352
vn 0.249931 0.968264 0.000000
vn -0.337397 0.941362 0.000000
vn -0.275119 0.951504 0.137658
vn -0.039008 -0.926476 0.374326
vn -0.040587 -0.887396 0.459217
vn -0.361566 -0.912999 0.188952
vn -0.296151 -0.946206 0.130338
vn 0.124389 0.968560 -0.215449
vn 0.206724 0.971092 -0.119352
vn -0.275119 0.951504 0.137658
vn -0.000125 0.984618 0.174719
vn 0.000000 -0.915624 0.402036
vn 0.000000 -0.870561 0.492061
vn -0.040587 -0.887396 0.459217
vn -0.039008 -0.926476 0.374326
vn 0.000000 0.951564 -0.307452
vn 0.124389 0.968560 -0.215449
vn -0.000125 0.984618 0.174719
vn 0.000000 0.956561 0.291531
vn 0.039008 -0.926476 0.374326
vn 0.040587 -0.887396 0.459217
vn 0.000000 -0.870561 0.492061
vn 0.000000 -0.915624 0.402036
vn -0.124389 0.968560 -0.215449
vn 0.000000 0.951564 -0.307452
vn 0.000000 0.956561 0.291531
vn 0.000125 0.984618 0.174719
vn 0.296151 -0.946206 0.130338
vn 0.361566 -0.912999 0.188952
vn 0.040587 -0.887396 0.459217
vn 0.039008 -0.926476 0.374326
vn -0.206724 0.971092 -0.119352
vn -0.124389 0.968560 -0.215449
vn 0.000125 0.984618 0.174719
vn 0.275119 0.951504 0.137658
vn 0.408088 -0.912943 0.000000
vn 0.498136 -0.867099 0.000000
vn 0.361566 -0.912999 0.188952
vn 0.296151 -0.946206 0.130338
vn -0.249931 0.968264 -0.000000
vn -0.206724 0.971092 -0.119352
vn 0.275119 0.951504 0.137658
vn 0.337397 0.941362 0.000000
vn 0.296151 -0.946206 -0.130338
vn 0.361566 -0.912999 -0.188952
vn 0.498136 -0.867099 0.000000
vn 0.408088 -0.912943 0.000000
vn -0.206724 0.971092 0.119352
vn -0.249931 0.968264 -0.000000
vn 0.337397 0.941362 0.000000
vn 0.275119 0.951504 -0.137658
s off
g Crater_Template_pCylinder1
usemtl Crater_Template_initialShadingGroup1
f 39/1/1 40/2/2 41/3/3 42/4/4
f 40/2/5 43/5/6 44/6/7 41/3/8
f 43/5/9 45/7/10 46/8/11 44/6/12
f 45/7/13 47/9/14 48/10/15 46/8/16
f 47/11/17 49/12/18 50/13/19 48/14/20
f 49/12/21 51/15/22 52/16/23 50/13/24
f 51/17/25 53/18/26 54/19/27 52/20/28
f 53/18/29 55/21/30 56/22/31 54/19/32
f 55/21/33 57/23/34 58/24/35 56/22/36
f 57/25/37 59/26/38 60/27/39 58/28/40
f 59/29/41 61/30/42 62/31/43 60/32/44
f 61/30/45 39/33/46 42/34/47 62/31/48
f 2/35/49 1/36/50 25/37/51
f 3/38/52 2/35/53 25/37/54
f 4/39/55 3/38/56 25/37/57
f 5/40/58 4/39/59 25/37/60
f 6/41/61 5/40/62 25/37/63
f 7/42/64 6/41/65 25/37/66
f 8/43/67 7/42/68 25/37/69
f 9/44/70 8/43/71 25/37/72
f 10/45/73 9/44/74 25/37/75
f 11/46/76 10/45/77 25/37/78
f 12/47/79 11/46/80 25/37/81
f 1/36/82 12/47/83 25/37/84
f 13/48/85 14/49/86 26/50/87
f 14/49/88 15/51/89 26/50/90
f 15/51/91 16/52/92 26/50/93
f 16/52/94 17/53/95 26/50/96
f 17/53/97 18/54/98 26/50/99
f 18/54/100 19/55/101 26/50/102
f 19/55/103 20/56/104 26/50/105
f 20/56/106 21/57/107 26/50/108
f 21/57/109 22/58/110 26/50/111
f 22/58/112 23/59/113 26/50/114
f 23/59/115 24/60/116 26/50/117
f 24/60/118 13/48/119 26/50/120
f 14/49/121 13/48/122 28/61/123 27/62/124
f 15/51/125 14/49/126 27/62/127 29/63/128
f 16/52/129 15/51/130 29/63/131 30/64/132
f 17/53/133 16/52/134 30/64/135 31/65/136
f 18/54/137 17/53/138 31/65/139 32/66/140
f 19/55/141 18/54/142 32/66/143 33/67/144
f 20/56/145 19/55/146 33/67/147 34/68/148
f 21/57/149 20/56/150 34/68/151 35/69/152
f 22/58/153 21/57/154 35/69/155 36/70/156
f 23/59/157 22/58/158 36/70/159 37/71/160
f 24/60/161 23/59/162 37/71/163 38/72/164
f 13/48/165 24/60/166 38/72/167 28/61/168
f 2/35/169 40/73/170 39/74/171 1/36/172
f 27/62/173 28/61/174 42/75/175 41/76/176
f 3/38/177 43/77/178 40/73/179 2/35/180
f 29/63/181 27/62/182 41/76/183 44/78/184
f 4/39/185 45/79/186 43/77/187 3/38/188
f 30/64/189 29/63/190 44/78/191 46/80/192
f 5/40/193 47/81/194 45/79/195 4/39/196
f 31/65/197 30/64/198 46/80/199 48/82/200
f 6/41/201 49/83/202 47/81/203 5/40/204
f 32/66/205 31/65/206 48/82/207 50/84/208
f 7/42/209 51/85/210 49/83/211 6/41/212
f 33/67/213 32/66/214 50/84/215 52/86/216
f 8/43/217 53/87/218 51/85/219 7/42/220
f 34/68/221 33/67/222 52/86/223 54/88/224
f 9/44/225 55/89/226 53/87/227 8/43/228
f 35/69/229 34/68/230 54/88/231 56/90/232
f 10/45/233 57/91/234 55/89/235 9/44/236
f 36/70/237 35/69/238 56/90/239 58/92/240
f 11/46/241 59/93/242 57/91/243 10/45/244
f 37/71/245 36/70/246 58/92/247 60/94/248
f 12/47/249 61/95/250 59/93/251 11/46/252
f 38/72/253 37/71/254 60/94/255 62/96/256
f 1/36/257 39/74/258 61/95/259 12/47/260
f 28/61/261 38/72/262 62/96/263 42/75/264
